:FULLY-SPECIFIED
:FORCE-ALL-JOINTS-BE-3DOF
:DEGREES
408
root 4.43943 16.2444 -11.3549 4.22628 -33.2496 -5.01587
lfemur -30.3635 4.69436 -6.40508
ltibia 44.4671 -0 0
lfoot -11.5689 12.3458 0.196721
ltoes -0.769922 0 0
rfemur -31.3849 -13.0682 21.7902
rtibia 65.809 -0 0
rfoot 2.09684 -1.18254 0.0129505
rtoes 22.56 -0 0
lowerback 5.07656 3.82837 1.71145
upperback 1.75785 5.15099 -1.14158
thorax -0.780426 2.57795 -2.39353
lowerneck -6.34039 2.07804 7.45338
upperneck 3.76422 2.11601 0.213898
head 2.43408 1.16957 -1.14448
lclavicle -5.38706e-14 3.49861e-14 0
lhumerus -44.1994 -19.7301 94.4828
lradius 50.4891 -0 0
lwrist 16.8215 0 0
lhand -17.2198 2.80423 0.059207
lfingers 7.12502 -0 0
lthumb 9.02239 32.5693 0.054071
rclavicle -5.38706e-14 3.49861e-14 0
rhumerus -45.1979 9.09731 -91.3677
rradius 63.2591 -0 0
rwrist 9.63783 0 0
rhand -21.8258 -18.6821 0.0540235
rfingers 7.12502 -0 0
rthumb 4.57569 -48.5405 0.0562246
409
root 4.37862 16.2241 -11.2573 4.10167 -33.2566 -4.99819
lfemur -30.1436 5.04034 -6.35937
ltibia 45.1326 -0 0
lfoot -12.2103 12.0075 0.204298
ltoes -0.948757 0 0
rfemur -32.2302 -12.6209 21.045
rtibia 65.1989 -0 0
rfoot 2.33841 -1.12346 0.0134487
rtoes 21.8086 -0 0
lowerback 5.20564 3.76402 1.76317
upperback 1.77769 5.06879 -1.15355
thorax -0.830815 2.53643 -2.43879
lowerneck -6.35302 2.24046 7.58617
upperneck 3.79897 2.33173 -0.0108668
head 2.46564 1.27341 -1.23235
lclavicle -5.38706e-14 3.49861e-14 0
lhumerus -44.1809 -19.776 94.5504
lradius 50.3297 -0 0
lwrist 16.5937 0 0
lhand -17.5223 2.58848 0.061485
lfingers 7.12502 -0 0
lthumb 8.7305 32.3651 0.0561513
rclavicle -5.38706e-14 3.49861e-14 0
rhumerus -45.2592 8.81209 -91.163
rradius 63.6849 -0 0
rwrist 9.81146 0 0
rhand -22.387 -18.7883 0.0561032
rfingers 7.12502 -0 0
rthumb 4.0338 -48.6549 0.0583889
410
root 4.3178 16.2037 -11.1598 3.97703 -33.2635 -4.98049
lfemur -29.9233 5.38613 -6.31231
ltibia 45.798 -0 0
lfoot -12.8519 11.6692 0.208087
ltoes -1.12759 0 0
rfemur -33.0799 -12.1845 20.2945
rtibia 64.5888 -0 0
rfoot 2.57998 -1.06438 0.0136978
rtoes 21.0571 -0 0
lowerback 5.33466 3.69956 1.81473
upperback 1.79755 4.9866 -1.16554
thorax -0.881169 2.49487 -2.48402
lowerneck -6.36527 2.40291 7.71894
upperneck 3.83288 2.54758 -0.235537
head 2.49705 1.37728 -1.32018
lclavicle -5.38706e-14 3.49861e-14 0
lhumerus -44.1625 -19.8218 94.618
lradius 50.1702 -0 0
lwrist 16.3659 0 0
lhand -17.8248 2.37272 0.0626241
lfingers 7.12502 -0 0
lthumb 8.4386 32.1609 0.0571916
rclavicle -5.38706e-14 3.49861e-14 0
rhumerus -45.3215 8.52708 -90.9581
rradius 64.1106 -0 0
rwrist 9.98509 0 0
rhand -22.9482 -18.8945 0.0571431
rfingers 7.12502 -0 0
rthumb 3.49191 -48.7693 0.0594711
411
root 4.25699 16.1833 -11.0623 3.85239 -33.2704 -4.96278
lfemur -29.7026 5.73175 -6.26388
ltibia 46.4635 -0 0
lfoot -13.4934 11.3307 0.208087
ltoes -1.30643 0 0
rfemur -33.934 -11.759 19.5386
rtibia 63.9787 -0 0
rfoot 2.82156 -1.0053 0.0136978
rtoes 20.3057 -0 0
lowerback 5.4636 3.63499 1.86614
upperback 1.81742 4.90441 -1.17756
thorax -0.931489 2.45327 -2.5292
lowerneck -6.37715 2.56539 7.85168
upperneck 3.86595 2.76357 -0.460119
head 2.5283 1.48121 -1.40795
lclavicle -5.38706e-14 3.49861e-14 0
lhumerus -44.1441 -19.8677 94.6856
lradius 50.0108 -0 0
lwrist 16.1382 0 0
lhand -18.1272 2.15696 0.0626241
lfingers 7.12502 -0 0
lthumb 8.14669 31.9568 0.0571916
rclavicle -5.38706e-14 3.49861e-14 0
rhumerus -45.3848 8.2423 -90.7531
rradius 64.5363 -0 0
rwrist 10.1587 0 0
rhand -23.5094 -19.0006 0.0571431
rfingers 7.12502 -0 0
rthumb 2.95001 -48.8837 0.0594711
412
root 4.19617 16.1629 -10.9648 3.72774 -33.2773 -4.94504
lfemur -29.4815 6.07718 -6.21409
ltibia 47.1289 -0 0
lfoot -14.1349 10.9924 0.204298
ltoes -1.48526 0 0
rfemur -34.7925 -11.3446 18.7775
rtibia 63.3686 -0 0
rfoot 3.06313 -0.946225 0.0134487
rtoes 19.5542 -0 0
lowerback 5.59248 3.5703 1.9174
upperback 1.83731 4.82222 -1.18961
thorax -0.981775 2.41163 -2.57435
lowerneck -6.38865 2.72789 7.98442
upperneck 3.89817 2.97968 -0.684619
head 2.55939 1.58519 -1.49567
lclavicle -5.38706e-14 3.49861e-14 0
lhumerus -44.1258 -19.9136 94.7533
lradius 49.8513 -0 0
lwrist 15.9104 0 0
lhand -18.4297 1.9412 0.061485
lfingers 7.12502 -0 0
lthumb 7.85479 31.7526 0.0561513
rclavicle -5.38706e-14 3.49861e-14 0
rhumerus -45.4491 7.95775 -90.5479
rradius 64.962 -0 0
rwrist 10.3323 0 0
rhand -24.0706 -19.1068 0.0561032
rfingers 7.12502 -0 0
rthumb 2.40812 -48.9981 0.0583889
413
root 4.13536 16.1426 -10.8672 3.60307 -33.2842 -4.92729
lfemur -29.2599 6.42241 -6.16292
ltibia 47.7944 -0 0
lfoot -14.7764 10.6541 0.196721
ltoes -1.6641 0 0
rfemur -35.6553 -10.9415 18.0112
rtibia 62.7585 -0 0
rfoot 3.3047 -0.887147 0.0129505
rtoes 18.8028 -0 0
lowerback 5.7213 3.50549 1.96852
upperback 1.85721 4.74004 -1.20169
thorax -1.03203 2.36995 -2.61946
lowerneck -6.39978 2.89042 8.11714
upperneck 3.92955 3.19591 -0.909042
head 2.59032 1.68921 -1.58334
lclavicle -5.38706e-14 3.49861e-14 0
lhumerus -44.1076 -19.9596 94.8209
lradius 49.6919 -0 0
lwrist 15.6826 0 0
lhand -18.7322 1.72545 0.059207
lfingers 7.12502 -0 0
lthumb 7.5629 31.5484 0.054071
rclavicle -5.38706e-14 3.49861e-14 0
rhumerus -45.5144 7.67342 -90.3425
rradius 65.3878 -0 0
rwrist 10.506 0 0
rhand -24.6318 -19.213 0.0540235
rfingers 7.12502 -0 0
rthumb 1.86623 -49.1125 0.0562246
414
root 4.07454 16.1222 -10.7697 3.47839 -33.291 -4.90952
lfemur -29.0378 6.76745 -6.11037
ltibia 48.4598 -0 0
lfoot -15.4178 10.3158 0.185356
ltoes -1.84293 0 0
rfemur -36.5224 -10.5498 17.2398
rtibia 62.1484 -0 0
rfoot 3.54627 -0.828072 0.0122033
rtoes 18.0513 -0 0
lowerback 5.85004 3.44057 2.01948
upperback 1.87712 4.65786 -1.2138
thorax -1.08224 2.32823 -2.66453
lowerneck -6.41053 3.05298 8.24984
upperneck 3.96009 3.41227 -1.1334
head 2.62109 1.79328 -1.67095
lclavicle -5.38706e-14 3.49861e-14 0
lhumerus -44.0894 -20.0055 94.8885
lradius 49.5325 -0 0
lwrist 15.4549 0 0
lhand -19.0346 1.50972 0.05579
lfingers 7.12502 -0 0
lthumb 7.27101 31.3443 0.0509505
rclavicle -5.38706e-14 3.49861e-14 0
rhumerus -45.5806 7.38933 -90.137
rradius 65.8135 -0 0
rwrist 10.6796 0 0
rhand -25.1929 -19.3191 0.0509043
rfingers 7.12502 -0 0
rthumb 1.32434 -49.2269 0.0529784
415
root 4.01372 16.1018 -10.6722 3.3537 -33.2978 -4.89172
lfemur -28.8153 7.11227 -6.05643
ltibia 49.1252 -0 0
lfoot -16.0591 9.97778 0.170207
ltoes -2.02177 0 0
rfemur -37.3937 -10.1696 16.4634
rtibia 61.5383 -0 0
rfoot 3.78784 -0.769001 0.011207
rtoes 17.2999 -0 0
lowerback 5.97872 3.37553 2.07029
upperback 1.89706 4.57569 -1.22593
thorax -1.13243 2.28647 -2.70956
lowerneck -6.4209 3.21556 8.38254
upperneck 3.98979 3.62875 -1.35769
head 2.65171 1.89739 -1.75852
lclavicle -5.38706e-14 3.49861e-14 0
lhumerus -44.0712 -20.0515 94.9562
lradius 49.373 -0 0
lwrist 15.2271 0 0
lhand -19.3371 1.294 0.0512343
lfingers 7.12502 -0 0
lthumb 6.97914 31.1401 0.0467901
rclavicle -5.38706e-14 3.49861e-14 0
rhumerus -45.6479 7.10547 -89.9312
rradius 66.2392 -0 0
rwrist 10.8532 0 0
rhand -25.7541 -19.4252 0.0467457
rfingers 7.12502 -0 0
rthumb 0.782465 -49.3413 0.0486506
416
root 3.95291 16.0815 -10.5746 3.22899 -33.3045 -4.87391
lfemur -28.5922 7.45689 -6.0011
ltibia 49.7907 -0 0
lfoot -16.7004 9.63991 0.151275
ltoes -2.2006 0 0
rfemur -38.2691 -9.80106 15.6822
rtibia 60.9282 -0 0
rfoot 4.02941 -0.709934 0.00996158
rtoes 16.5484 -0 0
lowerback 6.10733 3.31039 2.12096
upperback 1.917 4.49352 -1.23809
thorax -1.18257 2.24467 -2.75455
lowerneck -6.4309 3.37817 8.51523
upperneck 4.01865 3.84534 -1.58192
head 2.68217 2.00156 -1.84603
lclavicle -5.38706e-14 3.49861e-14 0
lhumerus -44.0531 -20.0975 95.0238
lradius 49.2136 -0 0
lwrist 14.9993 0 0
lhand -19.6395 1.07832 0.04554
lfingers 7.12502 -0 0
lthumb 6.68729 30.936 0.0415898
rclavicle -5.38706e-14 3.49861e-14 0
rhumerus -45.7161 6.82186 -89.7252
rradius 66.665 -0 0
rwrist 11.0269 0 0
rhand -26.3153 -19.5312 0.0415483
rfingers 7.12502 -0 0
rthumb 0.240598 -49.4556 0.0432416
